<mxfile host="app.diagrams.net" modified="2021-11-30T13:24:45.708Z" agent="5.0 (Macintosh; Intel Mac OS X 10_15_7) AppleWebKit/537.36 (KHTML, like Gecko) Chrome/93.0.4577.63 Safari/537.36" etag="iDSboBzEfxpwXPShSKiU" version="15.8.7" type="github">
  <diagram id="JhNW7K9gB0snOxjoR8eA" name="Page-1">
    <mxGraphModel dx="395" dy="209" grid="1" gridSize="10" guides="1" tooltips="1" connect="1" arrows="1" fold="1" page="1" pageScale="1" pageWidth="850" pageHeight="1100" math="0" shadow="0">
      <root>
        <mxCell id="0" />
        <mxCell id="1" parent="0" />
        <mxCell id="8scC_wSJQgRr0QdbTtFx-1" value="" style="endArrow=none;html=1;rounded=0;" parent="1" edge="1">
          <mxGeometry width="50" height="50" relative="1" as="geometry">
            <mxPoint x="120" y="920" as="sourcePoint" />
            <mxPoint x="120" y="720" as="targetPoint" />
            <Array as="points" />
          </mxGeometry>
        </mxCell>
        <mxCell id="8scC_wSJQgRr0QdbTtFx-2" value="" style="endArrow=none;html=1;rounded=0;" parent="1" edge="1">
          <mxGeometry width="50" height="50" relative="1" as="geometry">
            <mxPoint x="760" y="920" as="sourcePoint" />
            <mxPoint x="760" y="710" as="targetPoint" />
          </mxGeometry>
        </mxCell>
        <mxCell id="8scC_wSJQgRr0QdbTtFx-3" value="" style="endArrow=none;html=1;rounded=0;entryX=0;entryY=0.5;entryDx=0;entryDy=0;" parent="1" target="8scC_wSJQgRr0QdbTtFx-5" edge="1">
          <mxGeometry width="50" height="50" relative="1" as="geometry">
            <mxPoint x="120" y="820" as="sourcePoint" />
            <mxPoint x="250" y="820" as="targetPoint" />
          </mxGeometry>
        </mxCell>
        <mxCell id="8scC_wSJQgRr0QdbTtFx-5" value="" style="ellipse;whiteSpace=wrap;html=1;aspect=fixed;" parent="1" vertex="1">
          <mxGeometry x="253" y="810" width="20" height="20" as="geometry" />
        </mxCell>
        <mxCell id="8scC_wSJQgRr0QdbTtFx-6" value="" style="endArrow=none;html=1;rounded=0;exitX=0.5;exitY=1;exitDx=0;exitDy=0;entryX=0.5;entryY=1;entryDx=0;entryDy=0;" parent="1" source="8scC_wSJQgRr0QdbTtFx-5" target="8scC_wSJQgRr0QdbTtFx-8" edge="1">
          <mxGeometry width="50" height="50" relative="1" as="geometry">
            <mxPoint x="433" y="860" as="sourcePoint" />
            <mxPoint x="313" y="830" as="targetPoint" />
          </mxGeometry>
        </mxCell>
        <mxCell id="8scC_wSJQgRr0QdbTtFx-7" value="" style="endArrow=none;html=1;rounded=0;" parent="1" edge="1">
          <mxGeometry width="50" height="50" relative="1" as="geometry">
            <mxPoint x="293" y="830" as="sourcePoint" />
            <mxPoint x="293" y="800" as="targetPoint" />
          </mxGeometry>
        </mxCell>
        <mxCell id="8scC_wSJQgRr0QdbTtFx-8" value="" style="ellipse;whiteSpace=wrap;html=1;aspect=fixed;" parent="1" vertex="1">
          <mxGeometry x="313" y="810" width="20" height="20" as="geometry" />
        </mxCell>
        <mxCell id="8scC_wSJQgRr0QdbTtFx-10" value="" style="endArrow=none;html=1;rounded=0;exitX=1;exitY=0.5;exitDx=0;exitDy=0;" parent="1" source="8scC_wSJQgRr0QdbTtFx-8" edge="1">
          <mxGeometry width="50" height="50" relative="1" as="geometry">
            <mxPoint x="273" y="850" as="sourcePoint" />
            <mxPoint x="373" y="820" as="targetPoint" />
          </mxGeometry>
        </mxCell>
        <mxCell id="8scC_wSJQgRr0QdbTtFx-11" value="" style="ellipse;whiteSpace=wrap;html=1;aspect=fixed;" parent="1" vertex="1">
          <mxGeometry x="423" y="810" width="20" height="20" as="geometry" />
        </mxCell>
        <mxCell id="8scC_wSJQgRr0QdbTtFx-13" value="" style="endArrow=none;html=1;rounded=0;" parent="1" edge="1">
          <mxGeometry width="50" height="50" relative="1" as="geometry">
            <mxPoint x="463.00000000000006" y="805.42" as="sourcePoint" />
            <mxPoint x="463.00000000000006" y="775.42" as="targetPoint" />
          </mxGeometry>
        </mxCell>
        <mxCell id="8scC_wSJQgRr0QdbTtFx-14" value="" style="ellipse;whiteSpace=wrap;html=1;aspect=fixed;" parent="1" vertex="1">
          <mxGeometry x="483" y="810" width="20" height="20" as="geometry" />
        </mxCell>
        <mxCell id="8scC_wSJQgRr0QdbTtFx-15" value="" style="endArrow=none;html=1;rounded=0;exitX=1;exitY=0.5;exitDx=0;exitDy=0;" parent="1" source="8scC_wSJQgRr0QdbTtFx-14" edge="1">
          <mxGeometry width="50" height="50" relative="1" as="geometry">
            <mxPoint x="443" y="850" as="sourcePoint" />
            <mxPoint x="553" y="820" as="targetPoint" />
          </mxGeometry>
        </mxCell>
        <mxCell id="8scC_wSJQgRr0QdbTtFx-16" value="" style="endArrow=none;html=1;rounded=0;" parent="1" edge="1">
          <mxGeometry width="50" height="50" relative="1" as="geometry">
            <mxPoint x="433" y="805.42" as="sourcePoint" />
            <mxPoint x="493" y="805.42" as="targetPoint" />
          </mxGeometry>
        </mxCell>
        <mxCell id="8scC_wSJQgRr0QdbTtFx-20" value="" style="endArrow=none;html=1;rounded=0;" parent="1" edge="1">
          <mxGeometry width="50" height="50" relative="1" as="geometry">
            <mxPoint x="373" y="860" as="sourcePoint" />
            <mxPoint x="373" y="820" as="targetPoint" />
          </mxGeometry>
        </mxCell>
        <mxCell id="8scC_wSJQgRr0QdbTtFx-21" value="" style="endArrow=none;html=1;rounded=0;" parent="1" edge="1">
          <mxGeometry width="50" height="50" relative="1" as="geometry">
            <mxPoint x="373" y="860" as="sourcePoint" />
            <mxPoint x="443" y="860" as="targetPoint" />
          </mxGeometry>
        </mxCell>
        <mxCell id="8scC_wSJQgRr0QdbTtFx-22" value="" style="endArrow=none;html=1;rounded=0;" parent="1" edge="1">
          <mxGeometry width="50" height="50" relative="1" as="geometry">
            <mxPoint x="443" y="880" as="sourcePoint" />
            <mxPoint x="443" y="840" as="targetPoint" />
          </mxGeometry>
        </mxCell>
        <mxCell id="8scC_wSJQgRr0QdbTtFx-23" value="" style="endArrow=none;html=1;rounded=0;" parent="1" edge="1">
          <mxGeometry width="50" height="50" relative="1" as="geometry">
            <mxPoint x="483" y="880" as="sourcePoint" />
            <mxPoint x="483" y="840" as="targetPoint" />
          </mxGeometry>
        </mxCell>
        <mxCell id="8scC_wSJQgRr0QdbTtFx-24" value="" style="endArrow=none;html=1;rounded=0;" parent="1" edge="1">
          <mxGeometry width="50" height="50" relative="1" as="geometry">
            <mxPoint x="483" y="860" as="sourcePoint" />
            <mxPoint x="553" y="860" as="targetPoint" />
          </mxGeometry>
        </mxCell>
        <mxCell id="8scC_wSJQgRr0QdbTtFx-25" value="" style="endArrow=none;html=1;rounded=0;entryX=0;entryY=0.5;entryDx=0;entryDy=0;" parent="1" target="8scC_wSJQgRr0QdbTtFx-11" edge="1">
          <mxGeometry width="50" height="50" relative="1" as="geometry">
            <mxPoint x="373" y="820" as="sourcePoint" />
            <mxPoint x="463" y="800" as="targetPoint" />
          </mxGeometry>
        </mxCell>
        <mxCell id="8scC_wSJQgRr0QdbTtFx-26" value="" style="endArrow=none;html=1;rounded=0;" parent="1" edge="1">
          <mxGeometry width="50" height="50" relative="1" as="geometry">
            <mxPoint x="553" y="860" as="sourcePoint" />
            <mxPoint x="553" y="820" as="targetPoint" />
          </mxGeometry>
        </mxCell>
        <mxCell id="8scC_wSJQgRr0QdbTtFx-27" value="" style="endArrow=none;html=1;rounded=0;" parent="1" target="8scC_wSJQgRr0QdbTtFx-28" edge="1">
          <mxGeometry width="50" height="50" relative="1" as="geometry">
            <mxPoint x="553" y="820" as="sourcePoint" />
            <mxPoint x="593" y="820" as="targetPoint" />
          </mxGeometry>
        </mxCell>
        <mxCell id="8scC_wSJQgRr0QdbTtFx-28" value="" style="ellipse;whiteSpace=wrap;html=1;aspect=fixed;direction=west;" parent="1" vertex="1">
          <mxGeometry x="583" y="806.5" width="27" height="27" as="geometry" />
        </mxCell>
        <mxCell id="8scC_wSJQgRr0QdbTtFx-32" value="" style="endArrow=none;html=1;rounded=0;fontFamily=Times New Roman;fontSize=10;fontColor=default;exitX=0;exitY=0.5;exitDx=0;exitDy=0;" parent="1" source="8scC_wSJQgRr0QdbTtFx-28" edge="1">
          <mxGeometry width="50" height="50" relative="1" as="geometry">
            <mxPoint x="609.9971428571429" y="795.0000000000001" as="sourcePoint" />
            <mxPoint x="690" y="820" as="targetPoint" />
          </mxGeometry>
        </mxCell>
        <mxCell id="8scC_wSJQgRr0QdbTtFx-9" value="" style="endArrow=none;html=1;rounded=0;fontFamily=Times New Roman;fontSize=10;fontColor=default;" edge="1" parent="1">
          <mxGeometry width="50" height="50" relative="1" as="geometry">
            <mxPoint x="689.91" y="830" as="sourcePoint" />
            <mxPoint x="689.91" y="810" as="targetPoint" />
          </mxGeometry>
        </mxCell>
        <mxCell id="8scC_wSJQgRr0QdbTtFx-12" value="" style="endArrow=none;html=1;rounded=0;fontFamily=Times New Roman;fontSize=10;fontColor=default;" edge="1" parent="1">
          <mxGeometry width="50" height="50" relative="1" as="geometry">
            <mxPoint x="709.91" y="830" as="sourcePoint" />
            <mxPoint x="709.91" y="810" as="targetPoint" />
          </mxGeometry>
        </mxCell>
        <mxCell id="8scC_wSJQgRr0QdbTtFx-17" value="" style="endArrow=none;html=1;rounded=0;fontFamily=Times New Roman;fontSize=10;fontColor=default;" edge="1" parent="1">
          <mxGeometry width="50" height="50" relative="1" as="geometry">
            <mxPoint x="689.91" y="830" as="sourcePoint" />
            <mxPoint x="709.91" y="810" as="targetPoint" />
          </mxGeometry>
        </mxCell>
        <mxCell id="8scC_wSJQgRr0QdbTtFx-18" value="OL&#39;s" style="text;html=1;align=center;verticalAlign=middle;resizable=0;points=[];autosize=1;strokeColor=none;fillColor=none;fontSize=10;fontFamily=Times New Roman;fontColor=default;" vertex="1" parent="1">
          <mxGeometry x="690" y="790" width="30" height="20" as="geometry" />
        </mxCell>
        <mxCell id="8scC_wSJQgRr0QdbTtFx-19" value="2" style="text;html=1;align=center;verticalAlign=middle;resizable=0;points=[];autosize=1;strokeColor=none;fillColor=none;fontSize=10;fontFamily=Times New Roman;fontColor=default;" vertex="1" parent="1">
          <mxGeometry x="425" y="870" width="20" height="20" as="geometry" />
        </mxCell>
        <mxCell id="8scC_wSJQgRr0QdbTtFx-29" value="3" style="text;html=1;align=center;verticalAlign=middle;resizable=0;points=[];autosize=1;strokeColor=none;fillColor=none;fontSize=10;fontFamily=Times New Roman;fontColor=default;" vertex="1" parent="1">
          <mxGeometry x="480" y="870" width="20" height="20" as="geometry" />
        </mxCell>
        <mxCell id="8scC_wSJQgRr0QdbTtFx-30" value="Start&lt;br&gt;" style="text;html=1;align=center;verticalAlign=middle;resizable=0;points=[];autosize=1;strokeColor=none;fillColor=none;fontSize=10;fontFamily=Times New Roman;fontColor=default;" vertex="1" parent="1">
          <mxGeometry x="450" y="750" width="30" height="20" as="geometry" />
        </mxCell>
        <mxCell id="8scC_wSJQgRr0QdbTtFx-31" value="Stop" style="text;html=1;align=center;verticalAlign=middle;resizable=0;points=[];autosize=1;strokeColor=none;fillColor=none;fontSize=10;fontFamily=Times New Roman;fontColor=default;" vertex="1" parent="1">
          <mxGeometry x="275" y="780" width="30" height="20" as="geometry" />
        </mxCell>
      </root>
    </mxGraphModel>
  </diagram>
</mxfile>
